<?xml version="1.0" encoding="utf-8"?>
<!-- Generator: Adobe Illustrator 19.2.1, SVG Export Plug-In . SVG Version: 6.00 Build 0)  -->
<!DOCTYPE svg PUBLIC "-//W3C//DTD SVG 1.1//EN" "http://www.w3.org/Graphics/SVG/1.1/DTD/svg11.dtd">
<svg version="1.1" id="Capa_1" xmlns="http://www.w3.org/2000/svg" xmlns:xlink="http://www.w3.org/1999/xlink" x="0px" y="0px"
	 viewBox="0 0 579 579" style="enable-background:new 0 0 579 579;" xml:space="preserve">
<style type="text/css">
	.st0{fill:#666666;}
</style>
<g>
	<g>
		<path class="st0" d="M484.1,342.1c0-19.2-2.4-35.9-7.3-50.2c-4.9-14.3-11.6-26.1-20.2-35.5s-18.7-16.3-30.3-20.8
			c-11.6-4.5-24.4-6.7-38.3-6.7c-11,0-20.6,1.3-28.8,4c-8.2,2.7-15.2,6.1-21.1,10.4s-10.9,8.9-15,13.8s-7.5,9.4-10.4,13.5V235h-83.2
			c0.4,6.9,0.6,20.4,0.6,40.4v75.9c0,0-0.2,45.1-0.6,135.3h83.2V345.8c0-3.7,0.2-7.2,0.6-10.7s1.2-6.6,2.4-9.5
			c3.3-7.3,8.3-14.3,15-20.8s16-9.8,27.8-9.8c15.1,0,25.9,5.2,32.4,15.6s9.8,24.2,9.8,41.3v134.6h83.2L484.1,342.1L484.1,342.1z
			 M141.4,200.7c14.7,0,26.3-4.3,34.9-12.9c8.6-8.6,12.6-18.8,12.2-30.6c0-12.2-4.2-22.5-12.5-30.9s-19.7-12.5-34-12.5
			s-25.7,4.2-34.3,12.5s-12.8,18.7-12.8,31c0,11.8,4.1,22,12.2,30.6s19.4,12.9,33.7,12.9L141.4,200.7L141.4,200.7z M183,235H99.8
			v251.5H183V235z M561.8,0c4.1,0,7.5,1.3,10.4,4s4.3,6,4.3,10.1v550.8c0,4.1-1.4,7.4-4.3,10.1c-2.9,2.7-6.3,4-10.4,4H17.1
			c-4.1,0-7.5-1.3-10.4-4s-4.3-6-4.3-10.1V14.1C2.4,10,3.9,6.6,6.7,4S13,0,17.1,0H561.8L561.8,0z"/>
	</g>
</g>
</svg>
