<?xml version="1.0" encoding="UTF-8" standalone="no"?>
<svg
   xmlns:dc="http://purl.org/dc/elements/1.1/"
   xmlns:cc="http://creativecommons.org/ns#"
   xmlns:rdf="http://www.w3.org/1999/02/22-rdf-syntax-ns#"
   xmlns:svg="http://www.w3.org/2000/svg"
   xmlns="http://www.w3.org/2000/svg"
   xmlns:xlink="http://www.w3.org/1999/xlink"
   version="1.1"
   id="svg5346"
   viewBox="0 0 800.00001 800.00001"
   height="800"
   width="800">
  <defs
     id="defs5348">
    <linearGradient
       id="linearGradient6730">
      <stop
         id="stop6732"
         offset="0"
         style="stop-color:#000000;stop-opacity:1;" />
      <stop
         id="stop6734"
         offset="1"
         style="stop-color:#000000;stop-opacity:0;" />
    </linearGradient>
    <linearGradient
       gradientUnits="userSpaceOnUse"
       y2="1056.3257"
       x2="-2.857152"
       y1="719.1828"
       x1="390"
       id="linearGradient6736"
       xlink:href="#linearGradient6730" />
    <mask
       id="mask6740"
       maskUnits="userSpaceOnUse">
      <circle
         r="400"
         cy="652.36218"
         cx="400"
         id="circle6742"
         style="color:#000000;clip-rule:nonzero;display:inline;overflow:visible;visibility:visible;opacity:1;isolation:auto;mix-blend-mode:normal;color-interpolation:sRGB;color-interpolation-filters:linearRGB;solid-color:#000000;solid-opacity:1;fill:#ffffff;fill-opacity:1;fill-rule:nonzero;stroke:none;stroke-width:0.40000001;stroke-miterlimit:4;stroke-dasharray:none;stroke-opacity:1;color-rendering:auto;image-rendering:auto;shape-rendering:auto;text-rendering:auto;enable-background:accumulate" />
    </mask>
    <mask
       id="mask6744"
       maskUnits="userSpaceOnUse">
      <circle
         r="400"
         cy="652.36218"
         cx="400"
         id="circle6746"
         style="color:#000000;clip-rule:nonzero;display:inline;overflow:visible;visibility:visible;opacity:1;isolation:auto;mix-blend-mode:normal;color-interpolation:sRGB;color-interpolation-filters:linearRGB;solid-color:#000000;solid-opacity:1;fill:#ffffff;fill-opacity:1;fill-rule:nonzero;stroke:none;stroke-width:0.40000001;stroke-miterlimit:4;stroke-dasharray:none;stroke-opacity:1;color-rendering:auto;image-rendering:auto;shape-rendering:auto;text-rendering:auto;enable-background:accumulate" />
    </mask>
  </defs>
  <metadata
     id="metadata5351">
    <rdf:RDF>
      <cc:Work
         rdf:about="">
        <dc:format>image/svg+xml</dc:format>
        <dc:type
           rdf:resource="http://purl.org/dc/dcmitype/StillImage" />
        <dc:title></dc:title>
      </cc:Work>
    </rdf:RDF>
  </metadata>
  <g
     id="layer1"
     transform="translate(0,-252.36216)">
    <circle
       style="color:#000000;clip-rule:nonzero;display:inline;overflow:visible;visibility:visible;opacity:1;isolation:auto;mix-blend-mode:normal;color-interpolation:sRGB;color-interpolation-filters:linearRGB;solid-color:#000000;solid-opacity:1;fill:#1c8adb;fill-opacity:1;fill-rule:nonzero;stroke:none;stroke-width:0.40000001;stroke-miterlimit:4;stroke-dasharray:none;stroke-opacity:1;color-rendering:auto;image-rendering:auto;shape-rendering:auto;text-rendering:auto;enable-background:accumulate"
       id="path5900"
       cx="400"
       cy="652.36218"
       r="400" />
    <path
       mask="url(#mask6744)"
       id="path5914"
       d="M 485.44391,453.57114 380.36188,558.68443 C 339.70779,627.78571 256.40962,616.4702 211.48883,608.50474 L 12.105082,807.88849 C 44.736127,960.77167 158.68429,1047.5847 374.1214,1051.9379 L 574.08063,851.97739 485.46344,760.41294 405.24665,714.10239 574.07673,545.21177 Z"
       style="color:#000000;clip-rule:nonzero;display:inline;overflow:visible;visibility:visible;opacity:0.42000002;isolation:auto;mix-blend-mode:normal;color-interpolation:sRGB;color-interpolation-filters:linearRGB;solid-color:#000000;solid-opacity:1;fill:url(#linearGradient6736);fill-opacity:1;fill-rule:nonzero;stroke:none;stroke-width:0.40000001;stroke-miterlimit:4;stroke-dasharray:none;stroke-opacity:1;color-rendering:auto;image-rendering:auto;shape-rendering:auto;text-rendering:auto;enable-background:accumulate" />
    <path
       mask="url(#mask6740)"
       style="color:#000000;clip-rule:nonzero;display:inline;overflow:visible;visibility:visible;opacity:1;isolation:auto;mix-blend-mode:normal;color-interpolation:sRGB;color-interpolation-filters:linearRGB;solid-color:#000000;solid-opacity:1;fill:#ffffff;fill-opacity:1;fill-rule:nonzero;stroke:none;stroke-width:0.40000001;stroke-miterlimit:4;stroke-dasharray:none;stroke-opacity:1;color-rendering:auto;image-rendering:auto;shape-rendering:auto;text-rendering:auto;enable-background:accumulate"
       d="m 530.53357,434.88377 a 63.759383,63.759383 0 0 0 -63.75116,63.78834 63.759383,63.759383 0 0 0 0.78122,9.67614 l -166.91424,96.35276 a 63.759383,63.759383 0 0 0 -42.61251,-16.41236 63.759383,63.759383 0 0 0 -63.75117,63.75119 63.759383,63.759383 0 0 0 63.75117,63.75118 63.759383,63.759383 0 0 0 43.76608,-17.41711 l 166.02114,95.86877 a 63.759383,63.759383 0 0 0 -1.04226,11.20203 63.759383,63.759383 0 0 0 63.75118,63.75124 63.759383,63.759383 0 0 0 63.75116,-63.75124 63.759383,63.759383 0 0 0 -63.75116,-63.78832 63.759383,63.759383 0 0 0 -45.06867,18.75683 l -165.0164,-95.2733 a 63.759383,63.759383 0 0 0 1.37765,-13.10008 63.759383,63.759383 0 0 0 -1.78542,-14.51432 L 484.42379,542.6617 a 63.759383,63.759383 0 0 0 46.11076,19.76178 63.759383,63.759383 0 0 0 63.75115,-63.75137 63.759383,63.759383 0 0 0 -63.75115,-63.78834 z"
       id="path4154" />
  </g>
</svg>
