<?xml version="1.0" encoding="UTF-8" standalone="no"?>
<svg width="539" xmlns="http://www.w3.org/2000/svg" height="692">
 <defs>
  <linearGradient id="XMLID_11_" y1=".84627" x2=".13868" x1=".86132" y2=".15374">
   <stop stop-color="#d6a477" offset="0"/>
   <stop stop-color="#e4c3a8" offset="1"/>
  </linearGradient>
  <linearGradient id="XMLID_12_" y1="1.0547" x2=".22974" x1=".95262" y2=".040605">
   <stop stop-color="#967348" offset="0"/>
   <stop stop-color="#d6a477" offset="1"/>
  </linearGradient>
  <linearGradient id="XMLID_9_" y1=".72213" x2=".13262" x1=".86737" y2=".022491">
   <stop stop-color="#971b1e" offset="0"/>
   <stop stop-color="#ed1c24" offset="1"/>
  </linearGradient>
  <linearGradient id="XMLID_7_" y1=".15946" x2=".81856" x1=".18144" y2="1.0229">
   <stop stop-color="#fff" offset="0"/>
   <stop stop-color="#9d9fa1" offset="1"/>
  </linearGradient>
  <linearGradient id="svg_20" y1=".023438">
   <stop stop-color="#007f3f" stop-opacity=".996" offset="0"/>
   <stop stop-color="#6fb728" stop-opacity=".992" offset="1"/>
  </linearGradient>
  <linearGradient id="XMLID_8_" y1=".82081" x2="-.22934" x1="1.2293" y2=".26755">
   <stop stop-color="#971b1e" offset="0"/>
   <stop stop-color="#ed1c24" offset="1"/>
  </linearGradient>
 </defs>
 <path id="svg_1" fill="url(#XMLID_7_)" d="m518.9 563.32c0 144.91-502.9 144.91-502.9 0s112.58-262.38 251.45-262.38 251.45 117.47 251.45 262.38z"/>
 <g id="svg_2">
  <g id="svg_3">
   <path id="svg_4" fill="url(#XMLID_8_)" d="m309.36 594.82c0 59.494-25.835 55.246-40.891 55.246-15.051 0-40.881 4.248-40.881-55.246 0-59.527 25.83-160.27 40.881-160.27 15.056-0.000031 40.891 100.75 40.891 160.27z"/>
  </g>
 </g>
 <g id="svg_5">
  <g id="svg_6">
   <path id="svg_7" fill="url(#XMLID_9_)" d="m309.36 370.8c0-23.694-25.835-22.004-40.891-22.004-15.051 0-40.881-1.689-40.881 22.004 0 23.715 25.83 63.845 40.881 63.845 15.056-0.000977 40.891-40.13 40.891-63.845z"/>
  </g>
 </g>
 <g id="svg_8">
  <g id="svg_9">
   <g id="svg_10">
    <path id="svg_11" fill="url(#svg_20)" d="m366.22 321.32l-97.263 340.54-100.11-340.6c-89.855 40.015-152.84 133.04-152.84 241.43 0 144.91 502.9 144.91 502.9 0 0.000061-108.32-62.912-201.3-152.68-241.36z"/>
   </g>
  </g>
 </g>
 <g id="svg_12">
  <g id="svg_13">
   <ellipse id="svg_14" rx="167.63" ry="174.92" cy="190.96" cx="267.45" fill="url(#XMLID_11_)"/>
  </g>
 </g>
 <g id="svg_15">
  <g id="svg_16">
   <path id="svg_17" fill="url(#XMLID_12_)" d="m435.08 256.73c-23.312 7.08 0-196.57-228.53-116.11-6.216 0.548-15.984-20.483-64.827-14.869-6.176 0.71-23.953 12.52-30.142 13.134-19.804 1.846-9.902-20.303-4.057-31.974 2.946-6.582 6.569-12.954 10.807-19.049 29.664-42.667 89.443-71.822 158.34-71.822 98.444 0 176.63 43.73 158.4 240.52"/>
  </g>
 </g>
</svg>
