<?xml version="1.0" encoding="utf-8"?>
<!-- Generator: Adobe Illustrator 19.2.1, SVG Export Plug-In . SVG Version: 6.00 Build 0)  -->
<!DOCTYPE svg PUBLIC "-//W3C//DTD SVG 1.1//EN" "http://www.w3.org/Graphics/SVG/1.1/DTD/svg11.dtd">
<svg version="1.1" id="Capa_1" xmlns="http://www.w3.org/2000/svg" xmlns:xlink="http://www.w3.org/1999/xlink" x="0px" y="0px"
	 viewBox="0 0 97.8 97.8" style="enable-background:new 0 0 97.8 97.8;" xml:space="preserve">
<style type="text/css">
	.st0{fill:#666666;}
</style>
<g>
	<path class="st0" d="M48.9,0C21.9,0,0,21.9,0,48.9s21.9,48.9,48.9,48.9s48.9-21.9,48.9-48.9S75.9,0,48.9,0z M42.9,63.9
		c1.6,1.7,3.6,2.5,6,2.5h16.9c2.3,0,4.4,0.9,6,2.6c1.7,1.7,2.5,3.8,2.5,6.2c0,2.4-0.8,4.5-2.5,6.2s-3.7,2.6-6,2.6H48.9
		c-7,0-13-2.6-18-7.7S23.4,65,23.4,57.7V22.6c0-2.5,0.8-4.6,2.5-6.3s3.7-2.5,6.1-2.5c2.3,0,4.3,0.9,6,2.6s2.5,3.8,2.5,6.2v8.8h25.3
		c2.4,0,4.4,0.9,6,2.6c1.7,1.7,2.5,3.8,2.5,6.2s-0.8,4.5-2.5,6.2s-3.7,2.6-6,2.6H40.5v8.7C40.5,60.1,41.3,62.2,42.9,63.9z"/>
</g>
</svg>
