<?xml version="1.0" encoding="UTF-8" standalone="no"?>
<svg
   xmlns:dc="http://purl.org/dc/elements/1.1/"
   xmlns:cc="http://creativecommons.org/ns#"
   xmlns:rdf="http://www.w3.org/1999/02/22-rdf-syntax-ns#"
   xmlns:svg="http://www.w3.org/2000/svg"
   xmlns="http://www.w3.org/2000/svg"
   xmlns:xlink="http://www.w3.org/1999/xlink"
   width="800"
   height="800"
   viewBox="0 0 800.00001 800.00001"
   id="svg4180"
   version="1.1">
  <defs
     id="defs4182">
    <linearGradient
       id="linearGradient5615">
      <stop
         style="stop-color:#000000;stop-opacity:0.42"
         offset="0"
         id="stop5617" />
      <stop
         style="stop-color:#000000;stop-opacity:0;"
         offset="1"
         id="stop5619" />
    </linearGradient>
    <linearGradient
       xlink:href="#linearGradient5615"
       id="linearGradient5621"
       x1="399.79016"
       y1="420"
       x2="-4.075335"
       y2="788.57141"
       gradientUnits="userSpaceOnUse" />
    <mask
       maskUnits="userSpaceOnUse"
       id="mask5623">
      <circle
         r="400"
         cy="400.00003"
         cx="400"
         id="circle5625"
         style="color:#000000;clip-rule:nonzero;display:inline;overflow:visible;visibility:visible;opacity:1;isolation:auto;mix-blend-mode:normal;color-interpolation:sRGB;color-interpolation-filters:linearRGB;solid-color:#000000;solid-opacity:1;fill:#ffffff;fill-opacity:1;fill-rule:nonzero;stroke:none;stroke-width:12.80099964;stroke-miterlimit:4;stroke-dasharray:none;stroke-opacity:1;color-rendering:auto;image-rendering:auto;shape-rendering:auto;text-rendering:auto;enable-background:accumulate" />
    </mask>
    <mask
       maskUnits="userSpaceOnUse"
       id="mask5627">
      <circle
         r="643.67816"
         cy="652.36224"
         cx="223.3268"
         id="circle5629"
         style="color:#000000;clip-rule:nonzero;display:inline;overflow:visible;visibility:visible;opacity:1;isolation:auto;mix-blend-mode:normal;color-interpolation:sRGB;color-interpolation-filters:linearRGB;solid-color:#000000;solid-opacity:1;fill:#ffffff;fill-opacity:1;fill-rule:nonzero;stroke:none;stroke-width:12.80099964;stroke-miterlimit:4;stroke-dasharray:none;stroke-opacity:1;color-rendering:auto;image-rendering:auto;shape-rendering:auto;text-rendering:auto;enable-background:accumulate" />
    </mask>
    <mask
       maskUnits="userSpaceOnUse"
       id="mask5631">
      <circle
         r="400"
         cy="400.00003"
         cx="400"
         id="circle5633"
         style="color:#000000;clip-rule:nonzero;display:inline;overflow:visible;visibility:visible;opacity:1;isolation:auto;mix-blend-mode:normal;color-interpolation:sRGB;color-interpolation-filters:linearRGB;solid-color:#000000;solid-opacity:1;fill:#ffffff;fill-opacity:1;fill-rule:nonzero;stroke:none;stroke-width:12.80099964;stroke-miterlimit:4;stroke-dasharray:none;stroke-opacity:1;color-rendering:auto;image-rendering:auto;shape-rendering:auto;text-rendering:auto;enable-background:accumulate" />
    </mask>
  </defs>
  <metadata
     id="metadata4185">
    <rdf:RDF>
      <cc:Work
         rdf:about="">
        <dc:format>image/svg+xml</dc:format>
        <dc:type
           rdf:resource="http://purl.org/dc/dcmitype/StillImage" />
        <dc:title></dc:title>
      </cc:Work>
    </rdf:RDF>
  </metadata>
  <circle
     r="400"
     cy="400.00003"
     cx="400"
     id="circle4745"
     style="color:#000000;clip-rule:nonzero;display:inline;overflow:visible;visibility:visible;opacity:1;isolation:auto;mix-blend-mode:normal;color-interpolation:sRGB;color-interpolation-filters:linearRGB;solid-color:#000000;solid-opacity:1;fill:#1c8adb;fill-opacity:1;fill-rule:nonzero;stroke:none;stroke-width:12.80099964;stroke-miterlimit:4;stroke-dasharray:none;stroke-opacity:1;color-rendering:auto;image-rendering:auto;shape-rendering:auto;text-rendering:auto;enable-background:accumulate" />
  <path
     mask="url(#mask5631)"
     id="path4793"
     d="m 301.45703,151.42773 c -11.90511,0 -22.5673,5.12174 -29.92187,13.28711 L 0.96261109,435.28739 C 13.82154,631.11283 117.18351,778.36598 370.13421,799.33064 L 531.20898,638.25586 c 8.16537,-7.35458 13.28711,-18.01677 13.28711,-29.92188 l 0,-416.66796 c 0,-22.29204 -17.94625,-40.23829 -40.23828,-40.23829 z"
     style="color:#000000;clip-rule:nonzero;display:inline;overflow:visible;visibility:visible;opacity:1;isolation:auto;mix-blend-mode:normal;color-interpolation:sRGB;color-interpolation-filters:linearRGB;solid-color:#000000;solid-opacity:1;fill:url(#linearGradient5621);fill-opacity:1;fill-rule:nonzero;stroke:none;stroke-width:12.80099964;stroke-miterlimit:4;stroke-dasharray:none;stroke-opacity:1;color-rendering:auto;image-rendering:auto;shape-rendering:auto;text-rendering:auto;enable-background:accumulate" />
  <path
     mask="url(#mask5623)"
     style="color:#000000;clip-rule:nonzero;display:inline;overflow:visible;visibility:visible;opacity:1;isolation:auto;mix-blend-mode:normal;color-interpolation:sRGB;color-interpolation-filters:linearRGB;solid-color:#000000;solid-opacity:1;fill:#ffffff;fill-opacity:1;fill-rule:nonzero;stroke:none;stroke-width:12.80099964;stroke-miterlimit:4;stroke-dasharray:none;stroke-opacity:1;color-rendering:auto;image-rendering:auto;shape-rendering:auto;text-rendering:auto;enable-background:accumulate"
     d="m 301.45703,151.42773 c -22.29204,0 -40.23828,17.94625 -40.23828,40.23829 l 0,416.66796 c 0,22.29203 17.94624,40.23829 40.23828,40.23829 l 202.80078,0 c 22.29203,0 40.23828,-17.94626 40.23828,-40.23829 l 0,-416.66796 c 0,-22.29204 -17.94625,-40.23829 -40.23828,-40.23829 l -202.80078,0 z m 2.45313,11.88282 197.89453,0 c 16.02997,0 28.93359,12.90362 28.93359,28.93359 l 0,415.51172 c 0,16.02989 -12.90362,28.93359 -28.93359,28.93359 l -197.89453,0 c -16.02997,0 -28.9336,-12.9037 -28.9336,-28.93359 l 0,-415.51172 c 0,-16.02997 12.90363,-28.93359 28.9336,-28.93359 z m 72.4707,20.44922 c -4.94954,0 -8.93359,3.98405 -8.93359,8.93359 0,4.94954 3.98405,8.93359 8.93359,8.93359 l 52.95117,0 c 4.94954,0 8.93555,-3.98405 8.93555,-8.93359 0,-4.94954 -3.98601,-8.93359 -8.93555,-8.93359 l -52.95117,0 z m -94.23828,32.53515 0,352.85938 241.42969,0 0,-352.85938 -241.42969,0 z m 12.38086,14.1836 216.66797,0 0,324.49218 -216.66797,0 0,-324.49218 z M 402.85742,581.25 a 22.662209,22.662209 0 0 0 -22.66211,22.66211 22.662209,22.662209 0 0 0 22.66211,22.66211 22.662209,22.662209 0 0 0 22.66211,-22.66211 A 22.662209,22.662209 0 0 0 402.85742,581.25 Z"
     id="path4759" />
</svg>
